# xmcd
#
# Track frame offsets:
#	150
#	9987
#	25405
#	41112
#	51007
#	63157
#	80470
#	87777
#	100932
#	110180
#	121850
#	132507
#	143847
#	154240
#	168300
#	179760
#	190872
#	203920
#	216452
#	227895
#
# Disc length: 3193 seconds
#
# Revision: 1
# Processed by: cddbd v1.5.2PL0 Copyright (c) Steve Scherf et al.
# Submitted via: audiograbber 1.83.01
#
DISCID=200c7714
DTITLE=Mountain Strings and Chimes - Spiritual Music From America's Heartland, Pa
DTITLE=rt 1
DYEAR=2001
DGENRE=Religious
TTITLE0=The Unclouded Day
TTITLE1=Near The Cross
TTITLE2=Whispering Hope
TTITLE3=Just As I Am
TTITLE4=Abide In Me
TTITLE5=That's The Reason
TTITLE6=When The Roll Is Called Up Yonder
TTITLE7=At The Cross
TTITLE8=When We All Get To Heaven
TTITLE9=Will There Be Any Stars In My Crown?
TTITLE10=The Old Rugged Cross
TTITLE11=The Old Tear-Stained Altar
TTITLE12=I Would Not Be Denied
TTITLE13=If We Never Meet Again
TTITLE14=What A Friend
TTITLE15=Are You Washed In The Blood?
TTITLE16=With The Spirit Of The Lord Inside
TTITLE17=More About Jesus
TTITLE18=It Is Well With My Soul
TTITLE19=Just A Closer Walk With Thee
EXTD=
EXTT0=
EXTT1=
EXTT2=
EXTT3=
EXTT4=
EXTT5=
EXTT6=
EXTT7=
EXTT8=
EXTT9=
EXTT10=
EXTT11=
EXTT12=
EXTT13=
EXTT14=
EXTT15=
EXTT16=
EXTT17=
EXTT18=
EXTT19=
PLAYORDER=
